<svg width="164" height="164" viewBox="0 0 164 164" fill="none" xmlns="http://www.w3.org/2000/svg">
<g clip-path="url(#clip0_23_2)">
<path d="M146.263 0H17.5767C7.86933 0 0 7.86933 0 17.5767V146.263C0 155.97 7.86933 163.839 17.5767 163.839H146.263C155.97 163.839 163.839 155.97 163.839 146.263V17.5767C163.839 7.86933 155.97 0 146.263 0Z" fill="#20A0E1"/>
<path fill-rule="evenodd" clip-rule="evenodd" d="M107.971 62.7738C108.599 61.5183 109.854 61.5183 109.854 59.6351C107.343 59.6351 105.46 61.5183 104.204 62.146L62.146 88.511L70.3066 114.248C71.5621 112.993 71.5621 111.737 71.5621 109.226C71.5621 107.971 72.1898 105.46 72.1898 104.204V99.8103C72.8175 99.1825 72.8175 98.5548 72.8175 97.2993C72.8175 96.6716 72.8175 96.0438 72.8175 95.4161C73.4453 94.1606 74.073 94.7884 74.7008 93.5329C84.1168 83.4891 97.2993 72.1898 107.971 62.7738Z" fill="#CCD8E6"/>
<path fill-rule="evenodd" clip-rule="evenodd" d="M41.4307 80.9781L62.146 88.511L106.088 60.8905C107.343 60.2628 108.599 59.6351 109.854 59.6351C109.854 61.5183 107.343 63.4015 106.088 64.657C96.6716 72.8176 80.9781 84.7446 72.8176 94.1606L80.3504 99.8103C81.6059 99.8103 84.7446 102.949 85.3723 103.577C86.6278 104.204 91.6497 107.971 92.2774 109.226C93.5329 109.226 93.5329 109.854 94.1606 110.482L100.438 114.876C102.949 116.759 105.46 119.898 109.854 116.759L123.664 53.9854C125.548 43.3139 120.526 45.1971 113.62 47.7081L43.3139 75.9562C40.8029 77.2117 38.292 80.3504 41.4307 80.9781Z" fill="#FEFEFE"/>
<path fill-rule="evenodd" clip-rule="evenodd" d="M70.3066 114.248L70.9343 114.876C72.1898 114.876 73.4453 114.248 74.7008 112.993L85.3723 103.577C84.7446 102.949 81.6059 99.8103 80.3504 99.8103L72.8176 94.1606L70.3066 114.248Z" fill="#ABBDD5"/>
<path fill-rule="evenodd" clip-rule="evenodd" d="M163.839 87.2555L123.037 46.4526C124.292 47.7081 124.292 49.5913 123.664 53.9854L109.854 116.759C105.46 119.898 102.949 116.759 100.438 114.876L94.1606 110.482C93.5329 109.854 93.5329 109.226 92.2774 109.226C91.6497 107.971 86.6278 104.204 85.3723 103.577L74.7008 112.993C73.4453 113.62 72.1898 114.248 70.9343 114.876L120.526 163.839H146.263L163.839 146.263V87.2555Z" fill="#1A82B7"/>
<path fill-rule="evenodd" clip-rule="evenodd" d="M41.4307 80.9781L68.4234 108.599L62.146 88.511L41.4307 80.9781Z" fill="#1A82B7"/>
</g>
<defs>
<clipPath id="clip0_23_2">
<rect width="163.839" height="163.839" fill="white"/>
</clipPath>
</defs>
</svg>
